<svg width="32" height="32" viewBox="0 0 32 32" fill="none" xmlns="http://www.w3.org/2000/svg">
<path d="M31.5132 11.3996L18.1182 2.39062L18.1185 5.01616L29.8149 12.8815V25.7505L32 27.6256V12.3042V11.7269L31.5132 11.3996Z" fill="#FF2500"/>
<path d="M21.9466 21.1973H9.41742V16.3312L15.5614 12.2068L16.0445 11.8827L16.0438 11.3021C16.0408 7.85424 16.0375 4.44293 16.0033 1L14.3721 2.09006L0.486712 11.3996L0 11.7259V30.1251H31.9852C28.6049 27.2153 25.5086 24.5177 22.2632 21.492L21.9466 21.1973ZM2.18542 27.9399V12.8829L13.8622 5.05414L13.8673 10.7213L7.71889 14.8482L7.23217 15.1745V23.3824H21.0934L26.3017 27.9399H2.18542Z" fill="white"/>
</svg>
