<svg width="170" height="35" viewBox="0 0 170 35" fill="none" xmlns="http://www.w3.org/2000/svg">
<path d="M37.4549 12.3604L21.5342 1.65283L21.5346 4.77341L35.4363 14.1218V29.4172L38.0334 31.6459V13.4356V12.7495L37.4549 12.3604Z" fill="#FF2500"/>
<path d="M26.0847 24.0055H11.1931V18.2219L18.4955 13.3198L19.0697 12.9347L19.0689 12.2446C19.0654 8.14661 19.0614 4.0921 19.0207 0L17.082 1.29559L0.578482 12.3604L0 12.7482V34.6167H38.0161C33.9983 31.1582 30.3183 27.952 26.4609 24.3558L26.0847 24.0055ZM2.59748 32.0195V14.1234L16.4759 4.81856L16.482 11.5543L9.17429 16.4593L8.59581 16.8471V26.6027H25.0706L31.261 32.0195H2.59748Z" fill="white"/>
<path d="M63.6767 22.93V26.619H55.8633C50.9141 26.619 48.4395 25.1984 48.4395 18.2557C48.4395 11.3129 50.9141 9.86941 55.8633 9.86941H63.6767V13.5584H55.8862C53.6408 13.5584 52.8617 14.4521 52.8617 18.2557C52.8617 22.0593 53.6637 22.93 55.8862 22.93H63.6767ZM62.806 4.59937L58.9566 8.95288H55.8404L52.0139 4.59937H55.0155L57.3985 6.84486L59.8044 4.59937H62.806Z" fill="white"/>
<path d="M66.267 9.86941H70.758V26.619H66.267V9.86941Z" fill="white"/>
<path d="M84.14 21.4406H78.3659V26.619H73.8749V9.86941H84.14C87.5312 9.86941 90.6703 10.8776 90.6703 15.7352C90.6703 20.6157 87.4624 21.4406 84.14 21.4406ZM86.248 15.7352C86.248 13.9709 85.3544 13.5584 84.2775 13.5584H78.3659V17.889H84.2775C85.3544 17.889 86.248 17.4766 86.248 15.7352Z" fill="white"/>
<path d="M108.338 16.6288V19.8596H97.408V22.9987H108.429V26.619H92.917V9.86941H108.383V13.4897H97.408V16.6288H108.338Z" fill="white"/>
<path d="M122.013 21.074H115.712V26.619H111.221V9.86941H121.715C125.083 9.86941 128.131 10.6714 128.131 15.0936C128.131 16.9954 127.558 18.2557 126.573 19.0576C127.604 19.5846 128.245 20.4782 128.245 21.9905V26.619H123.754V22.4946C123.754 21.4177 123.456 21.074 122.013 21.074ZM123.823 15.6206C123.823 13.9251 122.952 13.5584 121.875 13.5584H115.712V17.7057H121.875C122.952 17.7057 123.823 17.3162 123.823 15.6206Z" fill="white"/>
<path d="M148.023 9.86941L142.386 17.9349L148.206 26.619H143.211L138.491 19.7908H135.604V26.619H131.113V9.86941H135.604V16.6517H138.491L143.28 9.86941H148.023Z" fill="white"/>
<path d="M148.736 26.619L156.939 9.86941H161.797L170 26.619H165.463L163.928 23.3653H154.946L153.411 26.619H148.736ZM159.414 13.8563L156.55 19.9512H162.301L159.414 13.8563Z" fill="white"/>
</svg>
